<?xml version="1.0" standalone="no"?>
<!DOCTYPE svg PUBLIC "-//W3C//DTD SVG 20010904//EN"
 "http://www.w3.org/TR/2001/REC-SVG-20010904/DTD/svg10.dtd">
<svg version="1.0" xmlns="http://www.w3.org/2000/svg"
 width="1280.000000pt" height="642.000000pt" viewBox="0 0 1280.000000 642.000000"
 preserveAspectRatio="xMidYMid meet">
<metadata>
Created by potrace 1.15, written by Peter Selinger 2001-2017
</metadata>
<g transform="translate(0.000000,642.000000) scale(0.100000,-0.100000)"
fill="#000000" stroke="none">
<path d="M7244 6409 c-6 -8 -25 -77 -44 -154 -28 -120 -208 -868 -315 -1310
-19 -77 -86 -348 -149 -603 l-116 -464 -72 -67 c-220 -204 -465 -411 -488
-411 -9 0 -426 135 -926 301 -1096 362 -1019 337 -1233 398 -136 39 -180 56
-204 78 -24 23 -493 561 -534 614 -7 9 -43 148 -79 310 -53 239 -70 297 -87
310 -33 26 -170 70 -236 76 l-61 6 -1 -49 c0 -27 -4 -57 -7 -67 -10 -23 -22
-13 -104 84 -34 42 -146 171 -248 288 -102 116 -212 244 -244 283 -84 100
-172 152 -336 198 -99 27 -206 36 -253 21 -63 -21 -64 -37 -8 -158 27 -60 134
-299 239 -533 105 -234 258 -573 341 -754 83 -180 153 -337 156 -347 6 -18 0
-19 -77 -20 -46 0 -105 -4 -132 -7 l-49 -7 -32 -93 c-18 -51 -36 -97 -41 -102
-13 -12 -307 -116 -744 -265 -599 -203 -772 -263 -784 -275 -21 -21 12 -45
157 -113 l146 -69 458 52 c596 67 1276 140 1334 143 41 2 59 -6 190 -84 529
-316 1222 -628 2034 -915 258 -92 333 -129 349 -176 14 -39 -6 -71 -84 -134
-36 -28 -109 -93 -163 -143 -95 -88 -102 -92 -194 -121 -130 -40 -847 -208
-1227 -286 -65 -14 -265 -58 -445 -100 -179 -41 -679 -154 -1111 -250 -1750
-390 -1820 -408 -1820 -448 0 -18 83 -94 123 -112 39 -17 65 -33 91 -57 23
-20 166 -77 211 -84 16 -2 158 12 315 31 157 20 461 56 675 81 215 25 551 64
747 87 394 45 395 45 382 -16 -3 -17 -12 -38 -20 -47 -14 -16 -17 -67 -6 -107
4 -12 28 -39 54 -60 174 -139 243 -191 318 -242 397 -266 927 -514 1102 -515
83 0 112 18 152 98 34 67 38 135 12 186 -41 78 -204 198 -461 341 -190 106
-323 198 -495 347 -81 69 -117 109 -107 120 5 5 495 64 1182 143 242 27 577
66 743 86 314 37 370 37 286 -3 -37 -17 -39 -21 -46 -76 -4 -31 -12 -66 -18
-77 -20 -37 16 -91 71 -111 26 -9 94 -52 152 -95 301 -225 677 -411 1051 -518
261 -75 374 -83 441 -31 38 28 105 153 105 194 0 38 -33 86 -87 125 -26 19
-144 85 -261 146 -117 60 -248 130 -291 155 -76 44 -336 245 -442 343 l-54 49
30 7 c17 3 280 35 585 71 1252 146 1180 138 1240 126 59 -12 446 -140 1320
-439 985 -337 1249 -428 1575 -542 859 -300 968 -333 1330 -402 154 -30 540
-32 658 -5 88 21 137 54 137 94 0 57 -98 210 -245 381 -139 163 -436 472 -570
595 -197 181 -188 178 -2165 833 -1179 390 -1380 460 -1403 486 -33 39 -60
153 -55 236 5 83 20 120 55 128 12 3 90 -16 180 -44 268 -85 550 -162 710
-192 97 -19 165 14 218 104 57 97 40 177 -47 222 -180 94 -460 216 -673 294
-49 18 -179 75 -287 126 -108 52 -216 99 -239 106 -24 8 -45 22 -50 33 -10 22
-153 752 -164 831 -5 41 -3 54 13 74 l19 23 229 -56 c454 -111 661 -140 734
-102 108 56 130 237 38 322 -22 20 -422 158 -579 198 -34 9 -133 48 -218 87
-185 84 -291 119 -466 156 l-130 27 -17 150 c-20 186 -79 805 -81 862 -1 23 2
45 6 50 13 13 52 -43 70 -100 14 -47 107 -510 168 -837 25 -139 34 -159 57
-136 14 13 9 46 -37 293 -29 153 -70 366 -91 473 -70 349 -69 348 -286 408
-180 51 -236 60 -250 41z m128 -70 c48 -10 190 -48 195 -53 3 -2 61 -561 173
-1666 69 -677 123 -1191 155 -1484 19 -170 35 -320 35 -334 0 -21 -3 -23 -32
-17 -44 9 -1511 495 -1520 504 -4 4 21 36 57 71 l65 64 106 -28 106 -27 62 58
c33 32 118 112 189 177 70 65 127 125 127 133 0 17 -21 25 -203 73 -183 49
-207 58 -207 79 0 19 105 472 121 518 5 18 18 34 27 37 9 3 71 -5 137 -19 176
-37 161 -45 169 84 9 154 65 820 72 857 6 34 -5 48 -51 58 -16 4 -46 11 -66
17 l-36 9 42 173 c180 744 176 727 201 727 13 0 47 -5 76 -11z m-5689 -150
c163 -41 315 -108 337 -149 6 -11 58 -72 117 -137 126 -139 349 -397 835 -963
195 -228 459 -534 585 -680 224 -259 229 -265 199 -268 -58 -7 -660 108 -889
169 -50 13 -49 12 -622 969 -252 421 -469 777 -482 791 -17 19 -38 28 -70 32
-30 3 -53 13 -69 28 -28 30 -107 207 -100 226 6 16 34 13 159 -18z m31 -280
c52 -41 144 -188 636 -1014 184 -308 353 -590 376 -627 24 -37 39 -70 34 -73
-11 -7 -169 34 -274 72 -77 27 -136 59 -136 73 0 9 -110 255 -301 675 -40 88
-80 171 -89 185 -10 14 -38 75 -63 135 -24 61 -85 203 -135 316 -50 113 -96
218 -102 233 -18 49 8 61 54 25z m1159 -490 c45 -11 85 -24 89 -27 7 -7 88
-350 104 -434 4 -24 2 -38 -4 -38 -6 0 -80 81 -166 180 l-156 181 0 73 c0 40
3 76 7 79 11 11 41 8 126 -14z m4284 -31 c23 -18 21 -50 -42 -750 -8 -91 -18
-173 -21 -182 -8 -22 -38 -20 -160 10 l-106 27 6 41 c4 23 52 226 106 451 55
226 100 414 100 419 0 11 101 -2 117 -16z m872 -305 c281 -93 691 -269 691
-297 0 -25 -581 75 -640 111 -16 9 -55 52 -85 95 -43 60 -70 86 -111 109 -30
17 -54 33 -54 35 0 9 73 -11 199 -53z m-203 19 l69 -28 47 -230 c126 -617 226
-1169 214 -1181 -3 -3 -52 2 -110 11 -58 9 -121 16 -140 16 -32 0 -36 3 -45
38 -12 45 -38 279 -90 807 -53 531 -54 549 -46 574 8 27 18 27 101 -7z m405
-271 c74 -17 197 -39 274 -50 141 -21 325 -28 325 -13 0 5 -23 19 -51 32 -28
14 -47 26 -42 27 11 4 280 -90 323 -112 32 -16 54 -43 27 -32 -45 17 -100 -81
-96 -170 2 -29 1 -55 -2 -57 -8 -8 -402 62 -593 105 -329 75 -376 97 -376 177
0 47 37 122 59 122 9 0 78 -13 152 -29z m881 -292 c-4 -43 -62 -103 -62 -65 0
9 -4 16 -10 16 -16 0 -11 36 8 52 38 34 68 32 64 -3z m-6818 -197 c13 -27 30
-53 38 -59 15 -13 398 -115 648 -174 96 -22 330 -71 520 -109 190 -38 353 -72
363 -75 36 -15 22 19 -51 114 -12 16 -19 32 -14 35 5 3 143 -39 308 -94 164
-54 481 -158 704 -230 1535 -498 6473 -2139 6728 -2235 162 -61 266 -114 355
-182 90 -67 527 -507 527 -529 0 -12 -18 -29 -51 -47 -64 -36 -119 -91 -119
-119 0 -34 71 -93 157 -128 125 -51 194 -83 190 -87 -2 -2 -73 17 -158 41
-220 62 -216 61 -224 35 -4 -11 -5 -58 -4 -103 l4 -81 -50 -3 c-65 -5 -194 13
-370 49 -182 37 -247 57 -885 276 -168 58 -456 156 -640 218 -184 63 -591 202
-905 310 -313 108 -707 244 -875 301 -481 165 -457 154 -465 219 -7 49 -58
119 -141 189 -143 122 -268 198 -398 241 -43 15 -255 71 -470 126 -443 114
-1143 298 -1631 429 -419 113 -453 121 -462 107 -3 -6 -1 -13 5 -15 13 -4 56
-71 50 -77 -7 -8 -783 258 -944 323 -427 172 -1066 478 -1161 556 -41 34 -63
80 -63 133 0 21 -5 55 -11 76 -13 50 -66 84 -389 252 -328 171 -360 189 -334
193 12 2 68 -9 125 -23 286 -71 483 -168 620 -305 101 -101 127 -195 72 -261
-24 -28 -24 -30 -6 -21 36 19 63 62 63 99 0 125 -201 319 -439 424 -108 48
-313 97 -439 106 -67 4 -95 10 -99 20 -3 8 2 41 12 74 l18 59 133 0 134 0 24
-48z m-263 -171 c30 -10 99 -39 154 -65 128 -60 545 -286 545 -296 0 -4 -24
-10 -52 -14 -123 -15 -578 -66 -763 -86 -110 -11 -294 -32 -410 -45 -331 -39
-714 -75 -785 -75 -42 0 -80 7 -107 20 -76 34 -164 2 845 306 337 101 623 189
635 196 68 36 -56 4 -521 -136 -931 -279 -1024 -306 -1060 -306 -23 0 -33 3
-26 10 5 5 108 43 229 86 366 127 1232 420 1251 422 6 1 35 -6 65 -17z m4714
-352 c64 -16 85 -26 85 -38 0 -25 -261 -272 -441 -417 l-69 -56 -90 28 c-49
15 -90 30 -90 33 0 18 494 471 513 471 4 0 46 -10 92 -21z m263 -70 c17 -6 32
-16 32 -23 0 -22 -329 -326 -352 -326 -7 0 -46 11 -86 24 l-74 23 115 104
c160 146 219 197 248 208 25 10 60 7 117 -10z m999 -139 c142 -49 160 -60 183
-114 11 -23 46 -185 80 -361 33 -176 67 -352 75 -392 20 -96 19 -103 -7 -103
-13 0 -105 28 -205 62 -131 44 -183 67 -183 78 0 8 -20 204 -44 435 -25 230
-42 423 -40 427 8 12 16 11 141 -32z m104 16 c97 -25 255 -92 564 -239 237
-113 316 -156 288 -157 -30 0 -378 66 -477 90 -91 23 -106 35 -180 140 -29 41
-60 81 -69 89 -9 7 -69 31 -134 52 -64 22 -119 42 -122 44 -11 11 43 3 130
-19z m464 -351 c253 -57 497 -84 507 -54 5 14 123 -33 277 -111 92 -46 124
-67 136 -89 19 -38 19 -114 0 -151 -34 -66 -83 -73 -243 -39 -201 43 -776 219
-863 265 -39 19 -52 56 -46 122 7 68 31 106 60 97 12 -3 90 -21 172 -40z
m-3172 -639 c161 -41 377 -98 481 -126 104 -28 345 -91 535 -141 561 -146
1099 -294 1110 -304 14 -15 62 -7 -1919 -319 -888 -140 -2038 -321 -2555 -401
-517 -81 -1284 -200 -1705 -266 -421 -66 -831 -129 -911 -141 l-146 -22 -74
46 c-41 26 -83 56 -93 67 -17 19 -17 20 1 29 10 6 93 28 183 50 196 48 1650
372 1669 372 7 0 76 -30 153 -66 108 -51 147 -65 171 -61 43 6 477 92 902 179
193 39 374 73 403 76 67 5 64 18 -16 57 -77 39 -81 42 -47 55 37 14 971 202
1193 240 212 37 270 38 362 6 l71 -25 173 165 c96 91 177 171 180 179 7 19
-25 40 -83 55 -59 16 -64 5 -8 -20 26 -12 47 -27 47 -35 0 -16 -223 -228 -282
-267 -50 -34 -78 -35 -142 -5 l-48 22 108 101 c159 146 295 264 305 264 5 0 9
7 9 15 0 19 -11 23 -177 75 -73 22 -133 42 -134 43 0 1 -3 22 -6 47 -3 24 -12
62 -19 83 -8 22 -14 41 -14 43 0 10 52 -1 323 -70z m-159 -174 c117 -36 124
-48 66 -108 -36 -37 -209 -194 -326 -296 -20 -17 -24 -17 -139 22 -65 22 -120
41 -122 43 -2 2 71 70 162 151 90 81 176 162 191 181 33 43 50 44 168 7z
m-430 -393 c112 -45 124 -40 -459 -159 -192 -39 -471 -96 -618 -126 l-268 -56
-52 17 c-29 9 -63 23 -76 30 -23 12 -23 13 -5 18 30 9 550 127 949 216 198 44
369 82 380 85 34 8 88 -1 149 -25z m2837 -67 c85 -50 164 -109 236 -176 103
-97 137 -89 -982 -216 -711 -81 -919 -106 -993 -121 l-52 -10 -63 44 c-34 24
-97 69 -141 100 -121 88 -133 74 -55 -63 54 -92 51 -95 -106 -115 -231 -29
-2182 -255 -2425 -281 l-55 -6 -62 57 c-35 31 -63 61 -63 66 0 5 10 11 23 14
58 14 1696 274 3522 560 473 74 916 145 985 159 69 13 134 24 145 25 11 0 50
-16 86 -37z m-4328 -244 c26 -13 47 -26 47 -31 0 -15 -51 -26 -527 -121 -705
-141 -772 -151 -788 -125 -4 6 -5 13 -1 16 3 3 189 47 413 98 224 51 491 113
593 138 102 24 192 45 200 46 8 1 36 -9 63 -21z m193 -94 c36 -15 62 -30 57
-34 -4 -4 -297 -62 -651 -130 l-643 -123 -45 21 c-81 40 -84 38 301 118 149
31 394 82 545 114 151 32 296 59 322 59 30 1 72 -9 114 -25z m2259 -181 c266
-207 682 -540 689 -552 4 -7 -1 -11 -12 -11 -47 0 -461 155 -608 227 -71 35
-85 57 -119 187 -29 106 -49 158 -90 224 -14 23 -22 42 -18 42 5 0 76 -53 158
-117z m-2937 -268 c1 -27 -2 -56 -7 -64 -5 -7 -33 -17 -62 -22 -107 -17 -1483
-179 -2074 -245 -231 -25 -242 -26 -280 -9 -36 15 -38 18 -20 26 52 22 2297
368 2375 366 l65 -2 3 -50z m162 -92 c259 -242 561 -536 556 -541 -17 -17
-606 303 -606 329 0 6 -9 22 -20 37 -36 49 -88 292 -62 292 4 0 64 -53 132
-117z m2706 36 c32 -6 138 -44 234 -84 216 -90 399 -157 507 -184 98 -25 119
-26 131 -4 9 15 19 12 95 -25 123 -58 288 -151 315 -175 12 -11 22 -29 22 -40
0 -18 -3 -17 -25 7 -28 31 -54 29 -93 -8 -43 -38 -64 -93 -63 -163 0 -56 -2
-63 -17 -59 -9 3 -66 19 -127 36 -256 73 -414 129 -633 226 -348 155 -602 321
-602 395 0 69 114 104 256 78z m-2758 -324 c43 -14 230 -102 416 -196 186 -94
340 -168 343 -165 3 3 -38 51 -92 106 -54 55 -94 100 -89 100 15 0 241 -128
349 -198 166 -107 252 -179 266 -219 28 -86 -45 -223 -119 -223 -21 0 -32 5
-32 14 0 12 19 22 72 40 42 13 80 117 59 162 -34 76 -171 -50 -171 -159 0 -20
-2 -37 -5 -37 -2 0 -95 37 -207 81 -478 192 -931 463 -1004 602 -13 24 -13 31
1 57 18 36 58 59 102 60 18 0 67 -11 111 -25z m4058 -300 c-10 -50 -120 -144
-143 -121 -13 13 8 33 46 45 45 13 75 49 87 106 9 40 18 14 10 -30z"/>
<path d="M4414 3305 c-21 -33 -9 -78 22 -83 30 -4 46 21 42 65 -4 49 -37 58
-64 18z"/>
<path d="M4530 3241 c0 -54 9 -66 41 -56 17 6 20 14 17 53 -3 43 -5 47 -30 50
-27 3 -28 2 -28 -47z"/>
<path d="M4652 3252 c-37 -37 -37 -112 -1 -112 21 0 49 42 49 74 0 46 -22 64
-48 38z"/>
<path d="M4760 3204 c-32 -37 -1 -123 34 -95 18 15 30 64 21 91 -8 24 -37 26
-55 4z"/>
<path d="M4842 3165 c-17 -37 -15 -59 7 -79 17 -16 20 -16 35 -1 10 10 16 33
16 61 0 39 -2 44 -23 44 -16 0 -28 -9 -35 -25z"/>
<path d="M4940 3134 c-12 -31 -12 -55 -1 -73 22 -34 68 28 56 76 -8 32 -43 30
-55 -3z"/>
<path d="M5040 3120 c-14 -26 -13 -63 3 -85 17 -23 34 -13 42 25 12 55 -23
102 -45 60z"/>
<path d="M5136 3094 c-3 -9 -6 -35 -6 -59 0 -31 5 -45 17 -49 39 -15 60 76 25
107 -23 21 -28 21 -36 1z"/>
<path d="M5250 3011 c0 -51 18 -78 45 -67 24 9 20 92 -4 106 -34 18 -41 12
-41 -39z"/>
<path d="M5357 3023 c-13 -12 -7 -89 7 -109 12 -15 18 -17 33 -8 22 13 30 88
12 110 -12 15 -41 19 -52 7z"/>
<path d="M5516 2968 c-36 -58 -22 -123 21 -99 30 15 39 65 19 96 -20 31 -22
31 -40 3z"/>
<path d="M5608 2925 c-15 -34 1 -90 27 -90 23 0 41 51 31 89 -8 34 -42 35 -58
1z"/>
<path d="M5730 2884 c-15 -37 -12 -70 6 -85 31 -26 67 46 48 95 -10 25 -43 19
-54 -10z"/>
<path d="M5842 2858 c-17 -17 -15 -59 4 -86 32 -46 60 -11 46 58 -8 37 -29 49
-50 28z"/>
<path d="M5960 2788 c0 -65 12 -88 37 -72 46 29 36 124 -13 124 -22 0 -24 -4
-24 -52z"/>
<path d="M6089 2763 c-13 -35 0 -87 24 -91 25 -5 50 58 37 93 -13 35 -47 33
-61 -2z"/>
<path d="M6212 2713 c-6 -25 -8 -51 -6 -58 5 -12 47 -35 64 -35 22 0 2 116
-22 132 -22 13 -26 9 -36 -39z"/>
<path d="M6330 2700 c-16 -30 -8 -91 13 -104 39 -23 63 57 31 102 -19 27 -30
28 -44 2z"/>
<path d="M6450 2620 c0 -37 4 -52 16 -57 23 -9 35 9 37 58 2 41 0 44 -25 47
-27 3 -28 2 -28 -48z"/>
<path d="M6606 2608 c-19 -27 -21 -68 -3 -92 12 -16 14 -16 26 -2 16 20 20
108 4 113 -6 2 -18 -6 -27 -19z"/>
<path d="M6681 2564 c-5 -19 -7 -43 -4 -52 22 -63 53 -43 53 34 0 47 -3 54
-20 54 -13 0 -22 -10 -29 -36z"/>
<path d="M6790 2545 c-15 -40 -12 -92 5 -99 23 -8 47 36 43 81 -4 47 -33 58
-48 18z"/>
<path d="M6890 2511 c-21 -41 -3 -111 29 -111 26 0 42 71 25 114 -8 22 -41 20
-54 -3z"/>
<path d="M7020 2470 c-15 -29 -8 -91 11 -103 30 -19 49 -1 49 47 0 24 -3 51
-6 60 -9 23 -41 20 -54 -4z"/>
<path d="M7156 2428 c-29 -41 -8 -119 27 -105 18 7 30 109 13 119 -17 12 -24
10 -40 -14z"/>
<path d="M7291 2402 c-16 -32 -20 -90 -7 -107 32 -45 83 15 66 77 -12 40 -45
57 -59 30z"/>
<path d="M7415 2355 c-3 -8 -7 -22 -10 -32 -9 -27 15 -85 33 -81 21 4 29 92
11 114 -15 18 -28 18 -34 -1z"/>
<path d="M7542 2318 c-20 -20 -15 -85 8 -108 28 -28 60 -26 62 3 2 38 -4 81
-13 99 -11 21 -40 23 -57 6z"/>
<path d="M7666 2282 c-11 -11 -6 -99 7 -116 7 -10 22 -17 33 -15 14 3 20 14
22 46 2 23 -1 51 -7 61 -10 20 -45 35 -55 24z"/>
<path d="M7817 2218 c-10 -37 4 -108 24 -118 14 -8 21 -5 33 12 22 31 20 70
-5 102 -25 32 -45 33 -52 4z"/>
<path d="M7962 2168 c-15 -15 -16 -63 -2 -89 15 -28 58 -25 70 5 22 59 -29
123 -68 84z"/>
<path d="M8100 2111 c-14 -28 -13 -64 4 -87 31 -40 68 19 52 82 -8 29 -41 32
-56 5z"/>
<path d="M8220 2085 c-6 -8 -14 -32 -17 -54 -5 -36 -3 -42 18 -50 34 -12 49 4
49 53 0 57 -24 82 -50 51z"/>
<path d="M8365 2043 c-24 -23 -14 -92 16 -116 33 -26 44 -16 47 42 2 39 -1 58
-14 72 -21 23 -28 24 -49 2z"/>
<path d="M8500 1976 c-16 -42 10 -96 46 -96 17 0 28 88 13 106 -18 22 -48 17
-59 -10z"/>
<path d="M8652 1938 c-20 -20 -15 -75 10 -92 15 -11 25 -12 34 -5 13 10 24 76
16 97 -5 15 -44 16 -60 0z"/>
<path d="M8790 1891 c-14 -27 -13 -84 2 -99 18 -18 46 -14 58 7 16 31 13 98
-6 105 -27 10 -43 7 -54 -13z"/>
<path d="M8926 1838 c-20 -28 -20 -57 0 -86 20 -29 40 -28 60 4 39 59 -20 139
-60 82z"/>
<path d="M9060 1801 c-12 -23 -13 -71 -2 -88 9 -15 58 -34 66 -26 9 10 7 79
-4 107 -11 31 -45 35 -60 7z"/>
<path d="M9202 1758 c-21 -21 -14 -72 13 -98 34 -32 49 -16 50 53 0 48 -2 52
-25 55 -14 2 -31 -3 -38 -10z"/>
<path d="M9319 1709 c-12 -23 -6 -74 12 -96 6 -7 22 -13 35 -13 21 0 24 5 24
39 0 56 -15 91 -39 91 -11 0 -25 -10 -32 -21z"/>
<path d="M9431 1676 c-17 -21 -10 -87 12 -100 39 -25 74 44 47 94 -12 23 -42
26 -59 6z"/>
<path d="M9550 1620 c-9 -35 -8 -46 5 -66 33 -50 65 -40 65 21 0 38 -21 79
-42 83 -12 2 -20 -8 -28 -38z"/>
<path d="M9701 1571 c-23 -42 -1 -101 37 -101 20 0 43 47 40 82 -3 29 -7 33
-35 36 -23 2 -34 -2 -42 -17z"/>
<path d="M11955 1170 c-16 -18 -16 -22 -2 -43 29 -44 109 -118 125 -115 9 2
23 15 31 29 13 23 12 30 -5 65 -21 43 -75 84 -109 84 -12 0 -30 -9 -40 -20z"/>
<path d="M11515 1072 c-32 -20 -95 -87 -95 -102 0 -15 18 -21 82 -30 38 -6 67
-5 73 0 7 6 18 34 25 65 11 44 11 57 0 70 -17 20 -48 19 -85 -3z"/>
<path d="M11823 1083 c-23 -9 -14 -28 41 -82 61 -63 84 -74 116 -58 32 16 34
29 8 62 -44 57 -125 95 -165 78z"/>
<path d="M11650 1051 c-13 -25 -13 -118 0 -126 5 -3 48 -11 95 -17 114 -14
121 -7 71 67 -59 85 -141 123 -166 76z"/>
<path d="M9411 3014 c-39 -33 -68 -118 -54 -160 13 -39 26 -37 39 6 9 28 17
36 40 38 37 5 51 16 57 50 6 34 -17 92 -37 92 -8 0 -28 -12 -45 -26z"/>
</g>
</svg>
